<svg xmlns="http://www.w3.org/2000/svg" viewBox="0 0 100 100" width="100" height="100">
  <!-- 背景 -->
  <rect width="100" height="100" rx="20" fill="#667eea"/>
  
  <!-- 電卓のディスプレイ -->
  <rect x="15" y="15" width="70" height="20" rx="3" fill="#000"/>
  <text x="78" y="30" font-family="Arial, sans-serif" font-size="12" fill="#fff" text-anchor="end">123</text>
  
  <!-- ボタングリッド -->
  <!-- 1行目 -->
  <rect x="15" y="42" width="15" height="12" rx="2" fill="#d4d4d2"/>
  <rect x="33" y="42" width="15" height="12" rx="2" fill="#d4d4d2"/>
  <rect x="51" y="42" width="15" height="12" rx="2" fill="#ff9500"/>
  <rect x="69" y="42" width="15" height="12" rx="2" fill="#ff9500"/>
  
  <!-- 2行目 -->
  <rect x="15" y="57" width="15" height="12" rx="2" fill="#fff"/>
  <rect x="33" y="57" width="15" height="12" rx="2" fill="#fff"/>
  <rect x="51" y="57" width="15" height="12" rx="2" fill="#fff"/>
  <rect x="69" y="57" width="15" height="12" rx="2" fill="#ff9500"/>
  
  <!-- 3行目 -->
  <rect x="15" y="72" width="15" height="12" rx="2" fill="#fff"/>
  <rect x="33" y="72" width="15" height="12" rx="2" fill="#fff"/>
  <rect x="51" y="72" width="15" height="12" rx="2" fill="#fff"/>
  <rect x="69" y="72" width="15" height="12" rx="2" fill="#34c759"/>
</svg>
